<svg xmlns="http://www.w3.org/2000/svg" xmlns:xlink="http://www.w3.org/1999/xlink" width="10" height="10" viewBox="0 0 10 10">
    <defs>
        <path id="prefix__a" d="M2.593 0c.381 0 .69.31.69.69v.52h3.564V.69c0-.38.31-.69.69-.69h.028c.382 0 .69.31.69.69v.52h.76c.382 0 .691.308.691.69v7.403c0 .382-.309.69-.69.69h-7.9c-.382 0-.692-.308-.692-.69V1.9c0-.382.31-.69.691-.69h.76V.69c0-.38.309-.69.69-.69zm5.953 3.295H1.585v5.607h6.961V3.295zM3.732 6.344c.061 0 .11.049.11.11v1.202c0 .06-.049.11-.11.11H2.531c-.061 0-.11-.05-.11-.11V6.454c0-.061.049-.11.11-.11zm1.934 0c.061 0 .11.049.11.11v1.202c0 .06-.049.11-.11.11H4.465c-.061 0-.111-.05-.111-.11V6.454c0-.061.05-.11.11-.11zm1.934 0c.06 0 .11.049.11.11v1.202c0 .06-.05.11-.11.11H6.398c-.06 0-.11-.05-.11-.11V6.454c0-.061.05-.11.11-.11zM3.732 4.41c.061 0 .11.05.11.11v1.202c0 .061-.049.11-.11.11H2.531c-.061 0-.11-.049-.11-.11V4.52c0-.06.049-.11.11-.11zm1.934 0c.061 0 .11.05.11.11v1.202c0 .061-.049.11-.11.11H4.465c-.061 0-.111-.049-.111-.11V4.52c0-.06.05-.11.11-.11zm1.934 0c.06 0 .11.05.11.11v1.202c0 .061-.05.11-.11.11H6.398c-.06 0-.11-.049-.11-.11V4.52c0-.06.05-.11.11-.11z"/>
    </defs>
    <g fill="none" fill-rule="evenodd">
        <mask id="prefix__b" fill="#fff">
            <use xlink:href="#prefix__a"/>
        </mask>
        <use fill="#000" fill-rule="nonzero" xlink:href="#prefix__a"/>
        <g fill="#A0AABB" mask="url(#prefix__b)">
            <path d="M0 0H10V10H0z"/>
        </g>
    </g>
</svg>
