<svg xmlns="http://www.w3.org/2000/svg" xmlns:xlink="http://www.w3.org/1999/xlink" width="16" height="16" viewBox="0 0 16 16">
    <defs>
        <path id="prefix__a" d="M13.637 2.141C12.128.761 10.127 0 8 0 5.874 0 3.872.76 2.363 2.141.84 3.536 0 5.395 0 7.375c0 1.545.505 3.008 1.465 4.255l-1.42 3.51c-.095.237-.038.507.145.684.12.115.276.176.435.176.085 0 .171-.017.252-.053l4.02-1.772c.983.382 2.026.575 3.103.575 1.349 0 2.682-.315 3.856-.912.308-.156.43-.532.274-.84-.156-.308-.532-.43-.84-.274-1 .508-2.137.776-3.29.776-1.002 0-1.966-.195-2.867-.579-.159-.068-.339-.067-.497.003L1.78 14.182l.98-2.424c.088-.216.048-.463-.103-.64-.921-1.08-1.408-2.375-1.408-3.743C1.25 3.998 4.278 1.25 8 1.25s6.75 2.748 6.75 6.125c0 1.163-.36 2.295-1.044 3.272-.197.283-.128.673.155.87.283.198.673.129.87-.154C15.561 10.174 16 8.795 16 7.375c0-1.98-.84-3.84-2.363-5.234z"/>
    </defs>
    <g fill="none" fill-rule="evenodd">
        <mask id="prefix__b" fill="#fff">
            <use xlink:href="#prefix__a"/>
        </mask>
        <use fill="#000" fill-rule="nonzero" xlink:href="#prefix__a"/>
        <g fill="#C0C6D2" mask="url(#prefix__b)">
            <path d="M0 0H16V16H0z"/>
        </g>
    </g>
</svg>
