<svg xmlns="http://www.w3.org/2000/svg" xmlns:xlink="http://www.w3.org/1999/xlink" width="16" height="16" viewBox="0 0 16 16">
    <defs>
        <path id="prefix__a" d="M8 6.883c1.298 0 2.423-.758 2.954-1.855.71.49 1.277 1.132 1.656 1.885.11.219.33.345.559.345.094 0 .19-.022.28-.067.308-.155.433-.53.278-.84-.542-1.076-1.385-1.969-2.45-2.6.003-.05.004-.1.004-.15C11.281 1.791 9.81.32 8 .32c-1.81 0-3.281 1.472-3.281 3.281 0 1.81 1.472 3.282 3.281 3.282zM8 1.57c1.12 0 2.031.911 2.031 2.031S9.12 5.633 8 5.633 5.969 4.72 5.969 3.6 6.88 1.57 8 1.57zM3.281 8.32c-.12 0-.24.007-.356.02.148-.833.499-1.61 1.033-2.285.215-.27.17-.663-.1-.878-.271-.214-.664-.17-.879.101-.804 1.014-1.273 2.218-1.367 3.5C.648 9.35 0 10.4 0 11.6c0 1.81 1.472 3.281 3.281 3.281 1.81 0 3.281-1.471 3.281-3.28 0-1.81-1.471-3.282-3.28-3.282zm0 5.313c-1.12 0-2.031-.912-2.031-2.032S2.161 9.57 3.281 9.57s2.031.911 2.031 2.031-.91 2.031-2.03 2.031zM16 11.6c0 .385-.066.761-.196 1.12-.118.324-.476.492-.8.374-.325-.118-.493-.476-.375-.8.08-.222.121-.455.121-.694 0-1.12-.911-2.031-2.031-2.031s-2.031.911-2.031 2.031.91 2.031 2.03 2.031c.106 0 .211-.008.314-.023.342-.053.66.18.713.522.053.341-.181.66-.522.713-.166.026-.336.039-.504.039-.44 0-.859-.087-1.242-.245-1.036.672-2.231 1.026-3.477 1.026-.324 0-.65-.025-.969-.073-.341-.052-.576-.37-.524-.712.052-.341.37-.576.712-.524.256.039.52.059.781.059.823 0 1.618-.192 2.337-.558-.557-.589-.9-1.383-.9-2.255 0-1.809 1.472-3.281 3.282-3.281S16 9.792 16 11.601z"/>
    </defs>
    <g fill="none" fill-rule="evenodd">
        <mask id="prefix__b" fill="#fff">
            <use xlink:href="#prefix__a"/>
        </mask>
        <use fill="#000" fill-rule="nonzero" xlink:href="#prefix__a"/>
        <g fill="#C0C6D2" mask="url(#prefix__b)">
            <path d="M0 0H16V16H0z"/>
        </g>
    </g>
</svg>
