<svg xmlns="http://www.w3.org/2000/svg" xmlns:xlink="http://www.w3.org/1999/xlink" width="16" height="16" viewBox="0 0 16 16">
    <defs>
        <path id="prefix__a" d="M15.375 11.625c.345 0 .625-.28.625-.625V6.625c0-1.034-.841-1.875-1.875-1.875h-2.219c-1.034 0-1.875.841-1.875 1.875v3.313H8.75V3.92l3.438-2.14v1.094c0 .345.28.625.624.625.346 0 .626-.28.626-.625V.656c0-.227-.124-.436-.322-.546-.198-.11-.441-.104-.634.016L8.75 2.448v-.573C8.75.841 7.909 0 6.875 0h-5C.841 0 0 .841 0 1.875v12.25C0 15.159.841 16 1.875 16h12.25C15.159 16 16 15.159 16 14.125c0-.345-.28-.625-.625-.625s-.625.28-.625.625-.28.625-.625.625h-2.844V6.625c0-.345.28-.625.625-.625h2.219c.345 0 .625.28.625.625V11c0 .345.28.625.625.625zm-14.125 2.5V1.875c0-.345.28-.625.625-.625h5c.345 0 .625.28.625.625v8.063H4.375c-1.034 0-1.875.84-1.875 1.874v2.938h-.625c-.345 0-.625-.28-.625-.625zm2.5-2.313c0-.344.28-.624.625-.624h5.656v3.562H3.75v-2.938zm9.906-3.937c0 .345-.28.625-.625.625s-.625-.28-.625-.625.28-.625.625-.625.625.28.625.625zm0 2.5c0 .345-.28.625-.625.625s-.625-.28-.625-.625.28-.625.625-.625.625.28.625.625zm0 2.5c0 .345-.28.625-.625.625s-.625-.28-.625-.625.28-.625.625-.625.625.28.625.625zM2.5 3.125c0-.345.28-.625.625-.625s.625.28.625.625-.28.625-.625.625-.625-.28-.625-.625zm2.5 0c0-.345.28-.625.625-.625s.625.28.625.625-.28.625-.625.625S5 3.47 5 3.125zm-2.5 2.5c0-.345.28-.625.625-.625s.625.28.625.625-.28.625-.625.625-.625-.28-.625-.625zm2.5 0C5 5.28 5.28 5 5.625 5s.625.28.625.625-.28.625-.625.625S5 5.97 5 5.625zm-2.5 2.5c0-.345.28-.625.625-.625s.625.28.625.625-.28.625-.625.625-.625-.28-.625-.625zm2.5 0c0-.345.28-.625.625-.625s.625.28.625.625-.28.625-.625.625S5 8.47 5 8.125zm1.25 4.938c0 .345-.28.624-.625.624S5 13.408 5 13.063c0-.346.28-.626.625-.626s.625.28.625.626zm2.5 0c0 .345-.28.624-.625.624s-.625-.28-.625-.624c0-.346.28-.626.625-.626s.625.28.625.626z"/>
    </defs>
    <g fill="none" fill-rule="evenodd">
        <mask id="prefix__b" fill="#fff">
            <use xlink:href="#prefix__a"/>
        </mask>
        <use fill="#000" fill-rule="nonzero" xlink:href="#prefix__a"/>
        <g fill="#C0C6D2" mask="url(#prefix__b)">
            <path d="M0 0H16V16H0z"/>
        </g>
    </g>
</svg>
