<svg xmlns="http://www.w3.org/2000/svg" xmlns:xlink="http://www.w3.org/1999/xlink" width="16" height="16" viewBox="0 0 16 16">
    <defs>
        <path id="prefix__a" d="M15.375 10.953c.345 0 .625-.28.625-.625V6.516c0-1.379-1.121-2.5-2.5-2.5h-1.4c.17-.649.275-1.259.275-1.625C12.375 1.08 11.31.016 10 .016S7.625 1.08 7.625 2.39c0 .366.105.976.275 1.625H6.5c-1.378 0-2.5 1.121-2.5 2.5v.994c-.648-.17-1.258-.276-1.625-.276C1.065 7.234 0 8.3 0 9.61c0 1.31 1.065 2.375 2.375 2.375.346 0 .953-.077 1.625-.246v1.746c0 1.379 1.122 2.5 2.5 2.5h1.813c.298 0 .572-.137.75-.377.177-.236.232-.547.147-.83-.244-.818-.335-1.457-.335-1.668 0-.62.505-1.125 1.125-1.125s1.125.505 1.125 1.125c0 .21-.091.85-.335 1.668-.085.283-.03.594.146.83.179.24.453.377.752.377H13.5c1.379 0 2.5-1.121 2.5-2.5 0-.345-.28-.625-.625-.625s-.625.28-.625.625c0 .69-.56 1.25-1.25 1.25h-1.4c.17-.648.275-1.258.275-1.625 0-1.31-1.065-2.375-2.375-2.375S7.625 11.8 7.625 13.11c0 .367.105.977.275 1.625H6.5c-.69 0-1.25-.56-1.25-1.25v-2.156c0-.299-.137-.573-.377-.751-.237-.177-.547-.231-.83-.147-.748.223-1.407.304-1.668.304-.62 0-1.125-.504-1.125-1.125 0-.62.505-1.125 1.125-1.125.21 0 .85.091 1.668.336.283.084.593.03.83-.147.24-.178.377-.452.377-.751V6.516c0-.69.56-1.25 1.25-1.25h1.813c.298 0 .572-.138.75-.377.177-.237.232-.547.147-.83-.244-.82-.335-1.458-.335-1.668 0-.62.505-1.125 1.125-1.125s1.125.504 1.125 1.125c0 .21-.091.849-.335 1.667-.085.284-.03.594.146.83.179.24.453.378.752.378H13.5c.69 0 1.25.56 1.25 1.25v3.812c0 .345.28.625.625.625z"/>
    </defs>
    <g fill="none" fill-rule="evenodd">
        <mask id="prefix__b" fill="#fff">
            <use xlink:href="#prefix__a"/>
        </mask>
        <use fill="#000" fill-rule="nonzero" xlink:href="#prefix__a"/>
        <g fill="#C0C6D2" mask="url(#prefix__b)">
            <path d="M0 0H16V16H0z"/>
        </g>
    </g>
</svg>
