<svg xmlns="http://www.w3.org/2000/svg" width="50" height="50" viewBox="0 0 50 50">
    <g fill="none">
        <path fill="#D35CB1" d="M0 25c0 13.807 11.193 25 25 25s25-11.193 25-25S38.807 0 25 0 0 11.194 0 25z"/>
        <path fill="#EB305B" d="M32.16 48.96l.083.017c.002-.014.004-.029.004-.044l-.087.027z"/>
        <path fill="#F0A037" d="M10.709 19.808c0 3.284 1.1 6.31 2.95 8.732 2.88 3.77 4.506 8.344 4.506 13.088v.396H32.05v-.352c0-4.7 1.51-9.299 4.404-13 2.015-2.574 3.172-5.852 3.043-9.403-.24-6.57-4.924-12.016-11.087-13.476-1.029-.245-2.1-.377-3.198-.384-8-.057-14.503 6.411-14.503 14.399z"/>
        <g fill="#F9B35F">
            <path d="M24.698 23.302c2.015-2.575 3.172-5.853 3.042-9.404C27.5 7.328 22.817 1.882 16.654.422c-.886-.21-1.803-.338-2.742-.374.218-.008.436-.012.655-.01 1.099.007 2.17.14 3.199.384 6.163 1.46 10.847 6.907 11.086 13.476.13 3.551-1.027 6.83-3.042 9.404-2.895 3.7-4.404 8.3-4.404 12.999v.352h-1.112V36.3c0-4.7 1.509-9.299 4.404-13z" transform="translate(10.645 5.371)"/>
            <path d="M.064 14.437c0 3.284 1.1 6.31 2.95 8.732 2.88 3.77 4.507 8.344 4.507 13.088v.396h3.456c.037-.234.068-.473.092-.72.994-9.813-6.377-11.417-5.862-22.628C5.72 2.095 17.766.422 17.766.422c-1.03-.245-2.1-.377-3.199-.385C6.567-.019.064 6.45.064 14.438z" transform="translate(10.645 5.371)"/>
        </g>
        <path fill="#32AACE" d="M32.282 41.304v6.958c0 .227-.012.45-.037.67 0 .015-.003.03-.005.044l-.08-.018c-1.15.344-2.332.606-3.544.781-.81.118-1.633.196-2.466.234-.134.007-.267.011-.401.014-.249.009-.5.012-.75.012-.185 0-.37-.002-.555-.006-.92-.02-1.827-.09-2.72-.206l-.256-.036c-1.14-.16-2.256-.4-3.34-.71-.05-.012-.1-.026-.15-.042-.002-.006-.003-.014-.003-.021-.027-.234-.04-.474-.04-.716v-6.958h14.347z"/>
        <path fill="#279CB7" d="M21.468 49.751c-1.14-.16-2.256-.399-3.34-.71l-.01-.035c-.061-.261-.107-.528-.137-.799-.03-.256-.046-.515-.047-.778v-6.125h3.132v6.094c0 .242.012.48.037.716.026.27.068.534.125.795.06.28.138.554.231.82.002.008.006.014.009.022z"/>
        <path fill="#4BC6E2" d="M16.716 43.603c.129.353.43.636.825.722l14.654 3.17c.082.017.162.025.241.025.472 0 .902-.297 1.064-.747.017-.046.03-.095.042-.146.133-.612-.256-1.214-.867-1.347L18.02 42.11c-.082-.017-.162-.026-.241-.026-.522 0-.992.363-1.106.893-.047.216-.029.432.042.626z"/>
        <path fill="#279CB7" d="M16.716 43.603c.129.353.43.636.825.722l14.654 3.17c.082.017.162.025.241.025.472 0 .902-.297 1.064-.747-.129-.353-.43-.636-.825-.722l-14.654-3.17c-.082-.017-.162-.025-.241-.025-.472 0-.902.297-1.064.747z"/>
        <path fill="#4BC6E2" d="M33.239 48.61c-.329.114-.66.223-.994.322 0 .015-.003.03-.005.044l-.08-.018c-1.15.344-2.332.606-3.544.781l-7.514-1.625-3.168-.686-.392-.084c-.396-.086-.697-.369-.825-.722-.072-.194-.09-.41-.043-.626.114-.53.585-.892 1.106-.892.051 0 .102.003.154.01.03.004.058.008.087.015l3.045.659 11.216 2.425.393.086c.222.048.415.158.564.31z"/>
        <path fill="#279CB7" d="M32.16 48.958c-1.15.344-2.332.606-3.544.781l-7.513-1.625-3.169-.686-.392-.084c-.396-.086-.697-.369-.825-.722.161-.45.59-.747 1.063-.747.051 0 .102.003.154.01l.087.015 3.045.659 11.094 2.4z"/>
        <path fill="#4BC6E2" d="M26.15 49.973c-.133.007-.267.011-.401.014-.249.009-.499.012-.75.012-.185 0-.37-.002-.555-.006-.92-.02-1.827-.09-2.72-.206l-.256-.036c-1.14-.16-2.255-.4-3.34-.71-.05-.012-.1-.026-.15-.041l-.126-.037c-.33-.099-.657-.204-.981-.316.21-.284.547-.459.91-.459.05 0 .101.004.153.011l.047.008.04.007 3.207.694 4.922 1.065z"/>
        <path fill="#279CB7" d="M21.46 49.73l.264.057-.256-.036c-1.14-.16-2.255-.399-3.34-.71-.05-.012-.1-.026-.15-.041l-.126-.037c.041.002.082.006.123.015.016 0 .03.004.046.007l.098.021 3.34.723z"/>
        <path fill="#4D5F82" d="M23.837 33.511h2.542c1.174 0 2.126.952 2.126 2.126v5.667H21.71v-5.667c0-1.174.952-2.126 2.126-2.126z"/>
        <g fill="#FFF">
            <path d="M7.598 22.456L8.216 22.456 8.216 6.126 12.841.404 12.361.016 7.598 5.907zM5.313 22.456L4.695 22.456 4.695 6.126.07.404.55.016 5.313 5.907z" transform="translate(18.652 18.848)"/>
        </g>
        <ellipse cx="34.805" cy="16.338" fill="#F9B35F" rx="3.953" ry="1.791" transform="rotate(74.407 34.805 16.338)"/>
    </g>
</svg>
