<svg xmlns="http://www.w3.org/2000/svg" width="50" height="50" viewBox="0 0 50 50">
    <g fill="none">
        <path fill="#FFA5C8" d="M50 25c0 13.72-11.101 25-25 25C11.137 50 0 38.753 0 25 0 11.193 11.193 0 25 0c13.833 0 25 11.217 25 25z"/>
        <path fill="#FFC396" d="M13.856 16.328l-.844 12.996c-.31.026-.624.04-.94.043-2.394.025-4.64-.592-6.579-1.687l1.259-8.052.601-3.674h.001l2.17.125 4.332.249z"/>
        <path fill="#FFD7AA" d="M21.398 16.255c-1.278.013-1.183.33-1.177.873.016 1.615-3.434.181-3.415 1.994.88 1.72 2.133 1.19 1.955 1.993l-.95 1.953v.003c-.199.366-.556.632-.786.688-.083.028-.754.102-2.026-.249-3.785-1.117-7.76-4.198-8.975-5.385-.361-.362-.694-.738-1.019-1.166-.157-.207-.305-.419-.445-.635 0-.063-2.163-2.888-1.38-6.68.544-3.511 3.654-6.534 8.215-6.541l.211.001c4.458.064 8.033 3.454 8.166 7.648.048 1.508-.08.981 2.29 4.704.21.374-.14.794-.664.799z"/>
        <path fill="#FFC396" d="M17.81 23.07c-.198.367-.555.633-.785.69-.083.027-.754.1-2.026-.25-3.466-.954-7.653-4.093-8.975-5.385-.393-.393-.718-.77-1.018-1.166h-.002c-.155-.207-.304-.419-.444-.635 0-.026-.576-.78-1.069-2.183 3.655 4.208 8.636 7.369 14.32 8.93z"/>
        <path fill="#965028" d="M20.678 9.58c-2.03.006-6.035-.25-7.805-.232-.922.01-.898 4.558-.856 5.479.557 6.268.58 13.067-7.474 7.485-2.665-1.847-2.41-7.16-2.41-10.676 0-5.002 4.049-9.952 9.204-9.952 3.995 0 9.461.865 9.87 7.133.133.371-.136.762-.53.764z"/>
        <path fill="#FF5A5F" d="M19.9 49.48c-7.879-1.63-14.377-6.964-17.634-14.073l2.287-9.517c.11-.462.546-.77 1.02-.722l7.903.81c.443.046.796.393.846.837l.397 3.503 1.987 2.306c.904 1.047 1.494 2.328 1.704 3.694L19.9 49.48z"/>
        <path fill="#CDF5FF" d="M27.702 44.684H11.08c-.236 0-.428-.191-.428-.428V33.12c0-.254.206-.46.46-.46h15.312c.149 0 .297-.017.442-.053l4.374-1.081c.184-.046.302.19.155.31l-2.585 2.109c-.429.35-.678.874-.678 1.428v8.883c0 .237-.192.428-.429.428z"/>
        <path fill="#B4EBFF" d="M28.131 40.79v3.465c0 .237-.192.43-.43.43H11.08c-.237 0-.43-.193-.43-.43v-7.681c.595.638 1.232 1.188 1.907 1.661.573.403 1.175.751 1.801 1.05 3.04 1.453 6.663 1.77 10.551 1.77 1.097.001 2.173-.09 3.222-.265z"/>
        <g fill="#4BB9E1" transform="translate(12.5 37.305)">
            <circle cx="12.196" cy="1.166" r="1.095"/>
            <circle cx="6.661" cy="1.166" r="1.095"/>
            <path d="M2.222 1.166c0 .323-.14.614-.363.815-.195.175-.451.28-.733.28-.605 0-1.095-.49-1.095-1.095 0-.081.009-.16.026-.236C.164.44.602.07 1.126.07c.605 0 1.096.491 1.096 1.096z"/>
        </g>
        <path fill="#CDF5FF" d="M28.823 2.66H44.76c.227 0 .41.183.41.41v10.676c0 .243-.196.44-.44.44H29.982c-.097 0-.194.012-.288.035l-3.96.978c-.248.062-.407-.257-.209-.419l2.447-1.996c.28-.227.441-.568.441-.928V3.07c0-.227.184-.41.411-.41z"/>
        <g fill="#4BB9E1" transform="translate(30.566 7.52)">
            <circle cx="1.139" cy="1.097" r="1.05"/>
            <circle cx="6.444" cy="1.097" r="1.05"/>
            <circle cx="11.751" cy="1.097" r="1.05"/>
        </g>
        <path fill="#B4EBFF" d="M45.17 12.002v1.744c0 .243-.198.44-.44.44H29.98c-.097 0-.193.011-.287.035l-3.959.978c-.249.062-.408-.257-.21-.419l2.448-1.996c.279-.227.44-.568.44-.928V5.914c.697.801 1.49 1.543 2.362 2.214.545.418 1.122.811 1.727 1.172 2.959 1.765 6.595 2.806 10.525 2.806.725 0 1.44-.035 2.144-.104z"/>
        <path fill="#46A5CD" d="M32.501 9.3c-.192.225-.477.366-.796.366-.58 0-1.05-.469-1.05-1.05 0-.176.042-.342.12-.488.544.419 1.121.811 1.726 1.172z"/>
        <path fill="#FFD7AA" d="M46.62 37.558c-1.407 2.418-3.209 4.582-5.319 6.399-.178.008-.358.011-.538.011-.32 0-.637-.01-.95-.033l-.986-13.123 4.373-.294 2.192-.15.646 3.707.581 3.483z"/>
        <path fill="#FFC396" d="M42.108 43.231c-.264.248-.532.49-.807.726-.178.008-.358.01-.538.01-.32 0-.637-.01-.95-.032l-.986-13.123 2.335-.157.946 12.576z"/>
        <path fill="#FFD7AA" d="M31.552 27.403c1.171.076 1.021 1.072.987 1.6-.102 1.572 3.138.347 3.023 2.11-.9 1.632-2.02 1.054-1.9 1.845l.767 1.949v.003c.161.366.475.643.682.71.074.03.686.136 1.87-.142 3.53-.901 7.34-3.705 8.517-4.8v-.001c.35-.334.676-.684.997-1.084v-.001c.155-.193.302-.392.442-.596.004-.061 2.138-2.705 1.624-6.436-.308-3.448-2.996-6.546-7.176-6.779l-.194-.01c-4.09-.158-7.505 2.275-7.852 6.353-.125 1.466.02.96-2.353 4.468-.212.353.086.78.566.81z"/>
        <path fill="#FFC396" d="M34.429 34.91c.161.366.475.643.682.71.074.03.686.136 1.87-.142 3.23-.758 7.236-3.608 8.517-4.8v-.001c.382-.363.7-.714.997-1.084v-.001c.154-.193.302-.392.442-.596.002-.025.57-.73 1.097-2.073-3.576 3.917-8.312 6.748-13.605 7.987z"/>
        <path fill="#AA6432" d="M45.397 30.967c-1.039-.47.178-1.66-1.559-3.01-.17-.131-.244-.354-.185-.561.471-1.639.594-2.873-.34-3.61-.992-.785-1.871 1.237-2.178 1.37-.34.149-.722-.07-.747-.44-.035-.512-.036-3.682-.002-4.213.139-2.137 1.252-3.045 2.322-4.566 3.898.737 6.366 3.865 6.674 7.311.274 1.987-.19 6.483-2.874 7.705-.352.16-.759.174-1.111.014z"/>
        <path fill="#965028" d="M49.534 22.925c-.029.32-.338.536-.649.454L37.19 20.284c-2.956-.893-4.628-4.013-3.735-6.97l.315-1.04c.082-.274.372-.43.646-.346l12.114 3.66c2.102.635 3.47 2.184 3.214 5.043l-.209 2.294z"/>
        <path fill="#FA7C33" d="M47.31 36.288c-2.603 5.137-6.93 9.267-12.242 11.606l.548-3.274c.162-.97.465-1.912.898-2.795l1.552-3.164c.212-.43.582-.762 1.031-.928l7.182-2.636c.364-.134.763.08.854.457l.177.734z"/>
        <path fill="#46A5CD" d="M14.359 39.286c-.195.174-.451.28-.733.28-.605 0-1.095-.49-1.095-1.095 0-.082.009-.16.026-.236.573.403 1.175.751 1.802 1.05z"/>
        <g fill="#80391B">
            <path d="M5.308 21.415c.785.544 1.495.975 2.14 1.302-1.15.064-2.75-.536-4.956-2.065-2.665-1.846-2.41-7.16-2.41-10.676C.082 4.974 4.131.024 9.286.024c.617 0 1.27.02 1.933.078-4.794.66-8.41 5.429-8.41 10.243 0 3.646-.265 9.155 2.499 11.07zM47.585 20.146l-.102 1.119c-.029.319-.338.536-.648.453l-11.697-3.094c-2.956-.893-4.628-4.013-3.735-6.969l.315-1.04c.082-.276.371-.43.646-.348l.61.185c-.8 2.912.868 5.948 3.776 6.827l10.835 2.867z" transform="translate(2.05 1.66)"/>
        </g>
        <path fill="#FF4046" d="M14.51 28.483L7.48 27.76c-.623-.063-1.196.343-1.341.95l-2.306 9.594c-.583-.927-1.107-1.895-1.567-2.898l2.288-9.517c.11-.462.546-.77 1.02-.722l7.903.81c.443.046.796.393.845.837l.19 1.668z"/>
        <path fill="#D76E19" d="M47.31 36.288c-.116.228-.235.454-.358.679l-6.306 2.315c-.45.165-.82.497-1.031.928l-1.553 3.163c-.433.883-.735 1.825-.898 2.796l-.125.752c-.64.352-1.298.677-1.97.973l.547-3.274c.162-.97.465-1.912.898-2.795l1.552-3.164c.212-.43.582-.762 1.031-.928l7.182-2.636c.364-.134.763.08.854.457l.177.734z"/>
        <g fill="#BA6746" transform="translate(16.992 11.719)">
            <circle cx=".818" cy=".794" r="1"/>
            <circle cx="18.968" cy="11.479" r="1"/>
        </g>
    </g>
</svg>
