<svg xmlns="http://www.w3.org/2000/svg" width="50" height="50" viewBox="0 0 50 50">
    <g fill="none">
        <path fill="#FFD662" d="M50 25c0 2.905-.495 5.694-1.406 8.288-.307.874-.662 1.726-1.06 2.553C43.496 44.218 34.924 50 25 50c-7.848 0-14.851-3.616-19.434-9.272-2.788-3.44-4.68-7.636-5.323-12.232l-.004-.029C.082 27.335 0 26.177 0 25 0 11.193 11.193 0 25 0s25 11.193 25 25z"/>
        <g fill="#FCE39D">
            <path d="M49.86 11.88c-.055.004-.11.005-.165.005H36.43c-.818 0-1.558-.331-2.093-.866-.535-.536-.867-1.275-.867-2.093 0-1.634 1.325-2.959 2.96-2.959h1.836c1.634 0 2.96-1.324 2.96-2.96 0-1.634 1.324-2.958 2.959-2.958h1.181c2.431 3.407 4.028 7.45 4.493 11.831zM47.923 24.54c-.124.287-.255.571-.39.852-2.234 4.637-5.86 8.48-10.334 10.985H28.57c-.817 0-1.557-.331-2.092-.866-.536-.536-.867-1.275-.867-2.093 0-1.634 1.325-2.959 2.96-2.959h1.836c1.634 0 2.96-1.325 2.96-2.96 0-1.633 1.324-2.958 2.958-2.958h11.597zM18.13 17.512c0 1.634-1.325 2.96-2.959 2.96H.706C.51 19.667.354 18.85.24 18.017.082 16.885 0 15.728 0 14.551c0-4.282 1.077-8.312 2.973-11.835h8.172c.817 0 1.557.332 2.093.866.535.536.866 1.276.866 2.093 0 1.634-1.325 2.96-2.96 2.96H9.309c-1.633 0-2.959 1.324-2.959 2.959 0 1.633 1.326 2.959 2.96 2.959h5.862c.817 0 1.558.331 2.092.866.536.536.868 1.276.868 2.093z" transform="translate(0 10.45)"/>
        </g>
        <path fill="#34A375" d="M26.01 13.861H27.495V24.630000000000003H26.01z"/>
        <path fill="#3FBD77" d="M25.27 16.196h1.394V14.8c0-3.258-1.574-6.146-4.003-7.949-.307-.227-.627-.437-.96-.63-1.451-.835-3.134-1.313-4.929-1.313h-1.394v1.394c0 1.03.158 2.022.45 2.956.105.338.229.668.368.99.513 1.177 1.248 2.236 2.152 3.122.329.323.68.622 1.052.896 1.642 1.212 3.671 1.929 5.87 1.929z"/>
        <path fill="#34A375" d="M25.946 16.196h.718v-.719l-4.407-4.407.404-4.218c-.307-.227-.628-.437-.96-.63l-.376 3.917-5.228-5.23h-.719v.718l3.401 3.402-2.952.23c.106.338.23.668.37.99l3.527-.275 2.887 2.886-4.263.511c.328.323.68.622 1.052.896l4.125-.492 2.421 2.42z"/>
        <path fill="#3FBD77" d="M27.84 14.804h-1.83v-1.83c0-4.273 2.065-8.06 5.251-10.425.402-.298.823-.574 1.26-.827C34.424.627 36.631 0 38.985 0h1.829V1.83c0 1.35-.207 2.651-.59 3.876-.138.444-.3.877-.483 1.298-.673 1.545-1.637 2.933-2.823 4.096-.43.423-.892.816-1.38 1.175-2.154 1.59-4.815 2.53-7.698 2.53z"/>
        <path fill="#C69A6A" d="M44.445 30.763s-2.774 2.016-5.993 4.276c-4.203 2.95-9.165 6.316-9.71 6.16L10.176 30.43c-1.172-.337 11.484-7.336 11.484-7.336s2.008-.428 5.08-.272c4.582.233 11.528 1.763 17.706 7.94z"/>
        <path fill="#B58657" d="M40.675 33.055s-.865.778-2.223 1.984c-4.203 2.95-9.165 6.316-9.71 6.16L10.176 30.43c-1.172-.337 11.484-7.336 11.484-7.336s2.008-.428 5.08-.272c4.396 1.54 9.345 4.55 13.936 10.232z"/>
        <path fill="#E5B691" d="M48.594 33.288c-.307.874-.662 1.726-1.06 2.553-.187.157-.396.294-.626.405l-15.51 7.522c-1.56.757-3.339.926-5.012.477L9.572 39.737c-.865-.232-1.784-.136-2.583.27l-1.423.72C2.778 37.288.886 33.093.243 28.497l-.004-.029 7.586-5.696c2.269-1.705 5.207-2.327 7.94-1.558.11.032.22.064.33.1l14.883 4.766c.778.249 1.349.84 1.603 1.55.098.27.149.557.149.85 0 .29-.051.586-.159.875-.456 1.23-1.78 1.903-3.041 1.55l-9.422-2.639c-.211-.059-.424-.088-.632-.088-1.073 0-2.045.745-2.281 1.845l-.005.022c-.245 1.195.47 2.377 1.643 2.714l10.802 3.104c.96.276 1.986.218 2.908-.164l11.902-4.935c.376-.156.766-.23 1.15-.23 1.115 0 2.182.624 2.701 1.683.07.143.128.289.174.436.065.21.105.423.124.636z"/>
        <path fill="#F7CEA6" d="M48.47 32.652c-.141.95-.734 1.816-1.664 2.267l-15.51 7.523c-1.56.756-3.339.925-5.012.476L9.47 38.41c-.865-.231-1.784-.136-2.583.27l-2.084 1.058C2.428 36.488.817 32.642.239 28.468l7.586-5.697c2.269-1.705 5.207-2.327 7.94-1.558.11.032.22.065.33.1l14.883 4.766c.778.249 1.349.84 1.603 1.55-.026.134-.063.267-.112.399-.456 1.23-1.78 1.903-3.041 1.55l-9.422-2.64c-.211-.058-.424-.087-.632-.087-1.08 0-2.058.755-2.286 1.866-.093.452-.048.902.107 1.305l-.005.022c-.245 1.195.47 2.377 1.643 2.714l10.802 3.104c.96.276 1.986.218 2.908-.164l11.902-4.935c.376-.156.766-.23 1.15-.23 1.115 0 2.182.624 2.701 1.683.07.143.127.29.173.436z"/>
        <path fill="#34A375" d="M26.952 14.804h-.942v-.942l5.781-5.781-.53-5.532c.403-.298.823-.574 1.26-.827l.492 5.137L39.87 0h.943v.942l-4.461 4.462 3.872.302c-.14.443-.301.876-.484 1.297l-4.628-.36-3.786 3.786 5.591.67c-.43.423-.892.816-1.38 1.175l-5.41-.645-3.176 3.175z"/>
    </g>
</svg>
