<svg xmlns="http://www.w3.org/2000/svg" xmlns:xlink="http://www.w3.org/1999/xlink" width="16" height="16" viewBox="0 0 16 16">
    <defs>
        <path id="prefix__a" d="M10.05.934c3.281 0 5.95 2.67 5.95 5.95 0 3.28-2.669 5.949-5.95 5.949-1.978 0-3.822-.98-4.932-2.623-.225-.332-.137-.784.196-1.01.333-.224.785-.137 1.01.196.838 1.241 2.231 1.982 3.727 1.982 2.478 0 4.494-2.016 4.494-4.494 0-2.479-2.016-4.495-4.494-4.495-1.5 0-2.896.744-3.734 1.991-.224.334-.676.422-1.009.198-.333-.224-.422-.676-.198-1.01C6.22 1.92 8.066.935 10.05.935zM2.396 4.188c.284-.284.744-.284 1.028 0 .284.284.284.744 0 1.028l-.94.94h8.426c.402 0 .727.326.727.728 0 .401-.325.727-.727.727H2.483l.94.94c.284.284.284.745 0 1.029-.142.142-.328.213-.514.213s-.372-.071-.514-.213L.213 7.398C.196 7.381.18 7.364.165 7.345l-.01-.014-.032-.043-.008-.013-.029-.048-.005-.01C.072 7.2.063 7.181.056 7.162c-.01-.026-.018-.046-.024-.066-.008-.028-.014-.048-.018-.07L.011 7.01C.008 6.99.005 6.974.004 6.956 0 6.932 0 6.908 0 6.884v-.037l.004-.036.007-.052.003-.018C.018 6.72.024 6.7.03 6.68c.008-.029.015-.049.023-.068l.003-.007c.007-.019.016-.037.025-.055l.005-.01.029-.047.008-.014c.01-.015.02-.029.032-.043l.01-.014c.015-.018.031-.036.048-.053z"/>
    </defs>
    <g fill="none" fill-rule="evenodd" transform="translate(0 1)">
        <mask id="prefix__b" fill="#fff">
            <use xlink:href="#prefix__a"/>
        </mask>
        <use fill="#000" fill-rule="nonzero" xlink:href="#prefix__a"/>
        <g fill="#F75656" mask="url(#prefix__b)">
            <path d="M0 0H16V16H0z" transform="translate(0 -1)"/>
        </g>
    </g>
</svg>
