<svg xmlns="http://www.w3.org/2000/svg" width="50" height="50" viewBox="0 0 50 50">
    <g fill="none">
        <path fill="#104A7C" d="M50 25c0 13.807-11.193 25-25 25S0 38.807 0 25 11.193 0 25 0s25 11.193 25 25z"/>
        <path fill="#F7DF9A" d="M24.044 15.664c-.162-.017-.283-.158-.283-.32V8.925c0-.695-.569-1.263-1.264-1.263H3.856c-.695 0-1.264.568-1.264 1.263v19.905h7.764c.122 0 .221-.094.231-.215.11-1.334 1.227-2.383 2.59-2.383 1.36 0 2.475 1.046 2.588 2.376.01.126.113.222.239.222h7.757v-7.59c0-.214.16-.392.373-.423 1.258-.18 2.225-1.263 2.225-2.571 0-1.34-1.013-2.442-2.315-2.583z"/>
        <path fill="#FB918A" d="M23.539 36.827c.125-.01.222-.113.222-.238V28.83h-7.59c-.215 0-.393-.16-.423-.373-.181-1.258-1.264-2.225-2.572-2.225-1.339 0-2.441 1.013-2.582 2.315-.018.162-.159.283-.322.283h-7.68v7.263c3.915 7.892 11.874 13.422 21.169 13.875v-7.733c0-.121-.094-.221-.216-.231-1.334-.11-2.382-1.227-2.382-2.59 0-1.36 1.045-2.475 2.376-2.588z"/>
        <path fill="#887EFF" d="M44.933 40.088v-9.993c0-.695-.568-1.264-1.263-1.264h-6.5c-.122 0-.222.094-.232.216-.11 1.334-1.227 2.382-2.589 2.382-1.36 0-2.476-1.045-2.589-2.376-.01-.125-.113-.222-.238-.222h-7.757v7.59c0 .215-.161.393-.374.423-1.258.181-2.224 1.264-2.224 2.572 0 1.339 1.013 2.441 2.314 2.582.162.018.284.158.284.321v7.65c.41.02.82.031 1.235.031 8.139 0 15.368-3.89 19.933-9.912z"/>
        <path fill="#FC86BF" d="M41.998 24.044c.018-.162.158-.283.321-.283h6.417c.695 0 1.264-.569 1.264-1.264V3.856c0-.695-.569-1.264-1.264-1.264h-18.64c-.696 0-1.265.569-1.265 1.264v6.5c0 .122.094.221.216.231 1.334.11 2.382 1.227 2.382 2.59 0 1.36-1.045 2.475-2.376 2.588-.125.01-.222.113-.222.239v6.493c0 .695.569 1.264 1.264 1.264h6.326c.215 0 .393.16.423.373.181 1.258 1.264 2.225 2.572 2.225 1.339 0 2.441-1.013 2.582-2.315z"/>
        <path fill="#F754B1" d="M32.962 22.806V3.546c0-.388.189-.735.478-.954h-3.345c-.695 0-1.264.569-1.264 1.264v6.5c0 .122.094.221.216.231 1.334.11 2.382 1.227 2.382 2.59 0 1.36-1.045 2.475-2.376 2.588-.125.01-.222.113-.222.239v6.493c0 .695.569 1.264 1.264 1.264h3.345c-.29-.22-.478-.566-.478-.955z"/>
        <path fill="#6060F4" d="M27.892 49.045V29.786c0-.39.188-.735.478-.955h-4.605v7.59c0 .215-.161.393-.374.424-1.258.18-2.224 1.263-2.224 2.57 0 1.34 1.013 2.442 2.314 2.583.162.018.284.159.284.322v7.65c.41.02.82.03 1.235.03 1.071 0 2.127-.068 3.162-.199-.169-.207-.27-.47-.27-.756z"/>
        <path fill="#F46969" d="M6.723 29.786c0-.389.189-.735.478-.955H2.592v7.263c1.085 2.188 2.482 4.193 4.131 5.96V29.786z"/>
        <path fill="#F4C758" d="M6.723 27.877V8.617c0-.389.189-.735.478-.954H3.856c-.695 0-1.264.568-1.264 1.263v19.905h4.61c-.29-.219-.479-.565-.479-.954z"/>
    </g>
</svg>
