<svg xmlns="http://www.w3.org/2000/svg" xmlns:xlink="http://www.w3.org/1999/xlink" width="16" height="16" viewBox="0 0 16 16">
    <defs>
        <path id="prefix__a" d="M2.938 0c1.206 0 2.187.981 2.187 2.188v11.624C5.125 15.02 4.144 16 2.937 16h-.75C.982 16 0 15.019 0 13.812V2.188C0 .98.981 0 2.188 0zm10.874 6.469C15.02 6.469 16 7.45 16 8.656v2.031c0 .346-.28.626-.625.626s-.625-.28-.625-.626v-2.03c0-.518-.42-.938-.938-.938H8.625c-.517 0-.938.42-.938.937v5.156c0 .517.421.938.938.938h5.188c.516 0 .937-.42.937-.938 0-.345.28-.624.625-.624s.625.28.625.624C16 15.02 15.019 16 13.812 16H8.625c-1.206 0-2.188-.981-2.188-2.188V8.657c0-1.206.982-2.187 2.188-2.187zM2.938 1.25h-.75c-.517 0-.938.42-.938.938v11.624c0 .517.42.938.938.938h.75c.516 0 .937-.42.937-.938V2.188c0-.517-.42-.938-.938-.938zM13.812 0C15.02 0 16 .981 16 2.188v.75c0 1.206-.981 2.187-2.188 2.187H8.625c-1.206 0-2.188-.981-2.188-2.188v-.75C6.438.982 7.42 0 8.626 0zm0 1.25H8.625c-.517 0-.938.42-.938.938v.75c0 .516.421.937.938.937h5.188c.516 0 .937-.42.937-.938v-.75c0-.516-.42-.937-.938-.937z"/>
    </defs>
    <g fill="none" fill-rule="evenodd">
        <mask id="prefix__b" fill="#fff">
            <use xlink:href="#prefix__a"/>
        </mask>
        <use fill="#000" fill-rule="nonzero" xlink:href="#prefix__a"/>
        <g fill="#8139C2" mask="url(#prefix__b)">
            <path d="M0 0H16V16H0z"/>
        </g>
    </g>
</svg>
