<svg xmlns="http://www.w3.org/2000/svg" xmlns:xlink="http://www.w3.org/1999/xlink" width="16" height="16" viewBox="0 0 16 16">
    <defs>
        <path id="prefix__a" d="M15.96 13.71c-.07-.338-.402-.555-.74-.484-.338.07-.555.4-.484.739.04.194-.008.394-.133.547-.072.09-.233.238-.5.238H1.897c-.267 0-.428-.149-.5-.238-.125-.153-.173-.353-.133-.547.649-3.116 3.397-5.391 6.57-5.468.055.002.11.003.166.003.056 0 .111-.001.166-.003 2.236.053 4.302 1.186 5.553 3.052.192.286.58.363.867.17.287-.191.364-.58.171-.866-1.025-1.53-2.514-2.642-4.212-3.201 1.034-.776 1.705-2.012 1.705-3.402C12.25 1.907 10.343 0 8 0S3.75 1.907 3.75 4.25c0 1.39.671 2.628 1.707 3.403-.949.313-1.84.8-2.619 1.44C1.41 10.27.416 11.908.041 13.71c-.118.565.023 1.145.386 1.591.361.444.897.699 1.47.699h12.206c.573 0 1.109-.255 1.47-.699.363-.446.504-1.026.386-1.59zM5 4.25c0-1.654 1.346-3 3-3s3 1.346 3 3c0 1.603-1.264 2.917-2.848 2.996L8 7.245l-.151.001C6.265 7.167 5 5.853 5 4.25z"/>
    </defs>
    <g fill="none" fill-rule="evenodd">
        <mask id="prefix__b" fill="#fff">
            <use xlink:href="#prefix__a"/>
        </mask>
        <use fill="#000" fill-rule="nonzero" xlink:href="#prefix__a"/>
        <g fill="#C0C6D2" mask="url(#prefix__b)">
            <path d="M0 0H16V16H0z"/>
        </g>
    </g>
</svg>
