<svg xmlns="http://www.w3.org/2000/svg" xmlns:xlink="http://www.w3.org/1999/xlink" width="28" height="28" viewBox="0 0 28 28">
    <defs>
        <path id="prefix__a" d="M14 0c7.732 0 14 6.268 14 14s-6.268 14-14 14S0 21.732 0 14 6.268 0 14 0zm0 1.75C7.234 1.75 1.75 7.234 1.75 14c0 6.765 5.484 12.25 12.25 12.25 6.765 0 12.25-5.485 12.25-12.25 0-6.766-5.485-12.25-12.25-12.25zM20.125 14c.483 0 .875.392.875.875 0 3.866-3.134 7-7 7s-7-3.134-7-7c0-.483.392-.875.875-.875zm-.945 1.75H8.82c.427 2.527 2.617 4.377 5.18 4.375 2.563.002 4.753-1.848 5.18-4.375zM9.625 7.875c.966 0 1.75.784 1.75 1.75s-.784 1.75-1.75 1.75-1.75-.784-1.75-1.75.784-1.75 1.75-1.75zm8.75 0c.966 0 1.75.784 1.75 1.75s-.784 1.75-1.75 1.75-1.75-.784-1.75-1.75.784-1.75 1.75-1.75z"/>
    </defs>
    <g fill="none" fill-rule="evenodd">
        <mask id="prefix__b" fill="#fff">
            <use xlink:href="#prefix__a"/>
        </mask>
        <use fill="#4AC979" fill-rule="nonzero" xlink:href="#prefix__a"/>
        <g fill="#4AC979" mask="url(#prefix__b)">
            <path d="M0 0H28V28H0z"/>
        </g>
    </g>
</svg>
