<svg xmlns="http://www.w3.org/2000/svg" xmlns:xlink="http://www.w3.org/1999/xlink" width="16" height="16" viewBox="0 0 16 16">
    <defs>
        <path id="prefix__a" d="M8 0c4.422 0 8 3.579 8 8 0 4.422-3.579 8-8 8H.625C.28 16 0 15.72 0 15.375V8c0-4.422 3.579-8 8-8zm0 1.25C4.269 1.25 1.25 4.27 1.25 8v6.75H8c3.731 0 6.75-3.02 6.75-6.75 0-3.731-3.02-6.75-6.75-6.75zm-.245 9.476c.457 0 .839.38.839.838 0 .447-.37.84-.84.84-.467 0-.827-.393-.827-.84 0-.457.37-.838.828-.838zm.142-6.35c1.394 0 2.32.772 2.32 1.796s-.926 1.765-1.22 1.994c-.6.468-.61.795-.61 1.361 0 .207-.11.447-.643.447-.447 0-.599-.163-.599-.73 0-.937.414-1.383.73-1.656.36-.305.97-.642.97-1.23 0-.502-.436-.741-.981-.741-1.111 0-.872.839-1.46.839-.294 0-.653-.196-.653-.621 0-.589.675-1.46 2.146-1.46z"/>
    </defs>
    <g fill="none" fill-rule="evenodd">
        <mask id="prefix__b" fill="#fff">
            <use xlink:href="#prefix__a"/>
        </mask>
        <use fill="#000" fill-rule="nonzero" xlink:href="#prefix__a"/>
        <g fill="#C0C6D2" mask="url(#prefix__b)">
            <path d="M0 0H16V16H0z"/>
        </g>
    </g>
</svg>
