<svg xmlns="http://www.w3.org/2000/svg" width="50" height="50" viewBox="0 0 50 50">
    <g fill="none">
        <path fill="#1F4E7D" d="M49.992 25c0 10.374-6.321 19.273-15.321 23.052-2.975 1.25-6.242 1.94-9.67 1.94-3.43 0-6.698-.69-9.672-1.94C6.329 44.272.009 35.374.009 25 .008 11.197 11.197.008 25 .008 38.803.008 49.992 11.198 49.992 25z"/>
        <path fill="#456D9E" d="M49.822 22.075c-.205 1.77-.596 3.482-1.152 5.118-.769 2.265-1.854 4.384-3.204 6.304C40.946 39.935 33.465 44.143 25 44.143c-8.463 0-15.945-4.208-20.466-10.645-1.35-1.92-2.435-4.04-3.204-6.305C.774 25.557.384 23.844.18 22.075 1.626 9.651 12.187.008 25 .008c12.814 0 23.375 9.643 24.822 22.067z"/>
        <path fill="#FFE26B" d="M29.089 33.717L29.089 44.751 20.911 44.751 20.911 38.868z"/>
        <path fill="#FEB247" d="M20.911 38.868L20.911 44.75 23.081 44.75 23.081 33.717M24.86 32.322h-9.236c-4.973 0-9.38-3.166-10.966-7.88L.08 10.843C-.077 10.375 0 9.86.288 9.46c.287-.4.75-.637 1.242-.637H15.39v3.06H3.659l3.9 11.583c1.166 3.466 4.407 5.795 8.065 5.795h9.236v3.06z"/>
        <path fill="#FFE26B" d="M42.847 7.862c0 .155-.002.31-.006.465-.004.16-.01.322-.018.483-.021.437-.057.874-.107 1.311C41.318 22.532 29.09 34.733 29.09 38.868H20.91c0-4.386-13.757-17.846-13.757-31.006h35.693z"/>
        <path fill="#FFE26B" d="M34.376 32.322H24.86v-3.06h9.516c3.658 0 6.899-2.329 8.066-5.795l3.898-11.583H34.611v-3.06H48.47c.493 0 .955.237 1.243.637.287.4.364.914.207 1.38l-4.578 13.602c-1.586 4.713-5.993 7.88-10.966 7.88z"/>
        <path fill="#FEB247" d="M34.67 45.663v2.389c-2.974 1.25-6.241 1.94-9.67 1.94-2.532 0-4.976-.376-7.278-1.077-.816-.247-1.615-.536-2.393-.863v-2.39c0-.785.636-1.421 1.422-1.421h16.498c.785 0 1.422.636 1.422 1.422z"/>
        <path fill="#FFE26B" d="M34.67 45.663v2.389c-2.974 1.25-6.241 1.94-9.67 1.94-2.532 0-4.976-.376-7.278-1.077v-3.252c0-.786.637-1.422 1.421-1.422h14.106c.785 0 1.422.636 1.422 1.422z"/>
        <path fill="#FEB247" d="M16.626 7.862H7.153c0 13.16 13.758 26.62 13.758 31.006h2.17c0-3.706-4.606-13.888-6.036-24.894-.265-2.043 1.33-3.853 3.391-3.853h22.28c.05-.437.086-.874.107-1.31.016-.317.024-.633.024-.95H16.626z"/>
        <path fill="#FEB247" d="M45.439 5.32c0 .716-.29 1.364-.76 1.834-.468.469-1.117.759-1.832.759H7.154c-1.432 0-2.592-1.161-2.592-2.593 0-.716.29-1.363.759-1.833.469-.469 1.117-.76 1.833-.76h35.693c1.43 0 2.592 1.161 2.592 2.593z"/>
        <path fill="#FFE26B" d="M45.439 5.32c0 .716-.29 1.364-.76 1.834-.468.469-1.117.759-1.832.759H14.63c-1.431 0-2.592-1.161-2.592-2.593 0-.716.29-1.363.759-1.833.47-.469 1.118-.76 1.833-.76h28.216c1.43 0 2.592 1.161 2.592 2.593z"/>
        <path fill="#FEB247" d="M33.042 40.515c0 .54-.22 1.03-.574 1.386-.355.354-.845.573-1.386.573H18.92c-1.083 0-1.96-.877-1.96-1.96 0-.54.219-1.03.574-1.385.354-.355.844-.575 1.386-.575h12.163c1.082 0 1.96.878 1.96 1.96z"/>
        <path fill="#FEB247" d="M29.089 39.352v3.92h-6.182c-1.082 0-1.96-.877-1.96-1.96 0-.541.219-1.031.574-1.386.355-.354.845-.574 1.386-.574h6.182z"/>
        <path fill="#FFE26B" d="M33.042 40.515c0 .54-.22 1.03-.574 1.386-.355.354-.845.573-1.386.573h-8.175c-1.082 0-1.96-.877-1.96-1.96 0-.54.219-1.03.574-1.385.354-.355.845-.575 1.386-.575h8.175c1.082 0 1.96.878 1.96 1.96z"/>
    </g>
</svg>
