<svg xmlns="http://www.w3.org/2000/svg" xmlns:xlink="http://www.w3.org/1999/xlink" width="16" height="16" viewBox="0 0 16 16">
    <defs>
        <path id="prefix__a" d="M13.688 11.375c1.275 0 2.312 1.037 2.312 2.313C16 14.963 14.963 16 13.687 16c-.345 0-.624-.28-.624-.625s.28-.625.624-.625c.586 0 1.063-.477 1.063-1.063 0-.585-.477-1.062-1.063-1.062H2.313c-.586 0-1.063.477-1.063 1.063 0 .585.477 1.062 1.063 1.062h8.25c.345 0 .624.28.624.625s-.28.625-.624.625h-8.25C1.036 16 0 14.963 0 13.687c0-1.275 1.037-2.312 2.313-2.312zm0-5.688C14.963 5.688 16 6.726 16 8c0 1.275-1.037 2.313-2.313 2.313H2.313C1.036 10.313 0 9.274 0 8c0-1.275 1.037-2.313 2.313-2.313zm0 1.25H2.312c-.585 0-1.062.477-1.062 1.063s.477 1.063 1.063 1.063h11.374c.586 0 1.063-.477 1.063-1.063s-.477-1.063-1.063-1.063zm0-6.937C14.963 0 16 1.037 16 2.313c0 1.275-1.037 2.312-2.313 2.312H2.313C1.036 4.625 0 3.588 0 2.312 0 1.038 1.037 0 2.313 0zm0 1.25H2.312c-.585 0-1.062.477-1.062 1.063 0 .585.477 1.062 1.063 1.062h11.374c.586 0 1.063-.477 1.063-1.063 0-.585-.477-1.062-1.063-1.062z"/>
    </defs>
    <g fill="none" fill-rule="evenodd">
        <mask id="prefix__b" fill="#fff">
            <use xlink:href="#prefix__a"/>
        </mask>
        <use fill="#000" fill-rule="nonzero" xlink:href="#prefix__a"/>
        <g fill="#C0C6D2" mask="url(#prefix__b)">
            <path d="M0 0H16V16H0z"/>
        </g>
    </g>
</svg>
