<svg xmlns="http://www.w3.org/2000/svg" xmlns:xlink="http://www.w3.org/1999/xlink" width="16" height="16" viewBox="0 0 16 16">
    <defs>
        <path id="prefix__a" d="M7.679 15.375c0 .345-.28.625-.625.625H3.46c-1.379 0-2.5-1.121-2.5-2.5v-11C.96 1.121 2.081 0 3.46 0h7.684c1.379 0 2.5 1.121 2.5 2.5v6.625c0 .345-.28.625-.625.625s-.625-.28-.625-.625V2.5c0-.69-.56-1.25-1.25-1.25H3.46c-.69 0-1.25.56-1.25 1.25v11c0 .69.56 1.25 1.25 1.25h3.594c.345 0 .625.28.625.625zm7.364-5.196c-.281-.2-.672-.136-.872.145l-3.081 4.303c-.084.097-.19.118-.246.122-.058.004-.171-.003-.268-.096l-1.994-1.915c-.25-.239-.645-.23-.884.018-.24.25-.231.645.018.884l1.996 1.917c.3.285.698.443 1.109.443.035 0 .07-.001.106-.004.447-.03.865-.247 1.146-.596l.02-.028 3.094-4.32c.2-.281.136-.672-.144-.873zM10.519 3.75H4.082c-.346 0-.625.28-.625.625s.28.625.625.625h6.437c.345 0 .625-.28.625-.625s-.28-.625-.625-.625zm.625 3.125c0-.345-.28-.625-.625-.625H4.082c-.346 0-.625.28-.625.625s.28.625.625.625h6.437c.345 0 .625-.28.625-.625zM4.082 8.75c-.346 0-.625.28-.625.625s.28.625.625.625h3.91c.344 0 .624-.28.624-.625s-.28-.625-.625-.625h-3.91z"/>
    </defs>
    <g fill="none" fill-rule="evenodd">
        <mask id="prefix__b" fill="#fff">
            <use xlink:href="#prefix__a"/>
        </mask>
        <use fill="#000" fill-rule="nonzero" xlink:href="#prefix__a"/>
        <g fill="#C0C6D2" mask="url(#prefix__b)">
            <path d="M0 0H16V16H0z"/>
        </g>
    </g>
</svg>
